<?xml version="1.0" encoding="UTF-8" standalone="no"?>
<svg width="370" height="370" viewBox="0 0 370 370" version="1.1" xmlns="http://www.w3.org/2000/svg">
  <g transform="translate(69, 16)">
    <path d="M116.314,2.555c-13.198,6.123 -54.018,43.541 -71.842,65.855c-16.464,20.682 -27.894,42.589 -33.88,64.631c-3.81,14.423 -4.899,43.541 -1.905,57.011c5.306,25.308 23.131,46.671 41.772,50.072c12.381,2.313 25.308,-6.667 33.199,-22.995c5.579,-11.837 7.892,-20.818 18.233,-71.026c10.205,-49.255 13.607,-63.814 20.41,-86.129c9.66,-31.158 13.062,-51.024 9.796,-57.011c-2.041,-3.81 -8.163,-3.946 -15.783,-0.408Z" style="fill:#000;fill-rule:nonzero;"/>
    <path d="M186.523,22.965c-4.898,6.803 -10.885,22.45 -16.6,43.268c-8.844,32.52 -10.34,37.01 -32.519,97.015c-7.62,20.545 -14.967,41.635 -16.464,46.942c-3.946,14.287 -4.762,27.213 -2.041,36.329c8.98,30.887 57.011,24.764 83.544,-10.749c24.083,-31.839 33.064,-71.298 26.941,-117.424c-3.81,-27.893 -14.559,-67.76 -23.267,-86.265c-6.123,-12.926 -14.287,-16.736 -19.594,-9.116Z" style="fill:#000;fill-rule:nonzero;"/>
    <path d="M10.161,252.794c-2.546,1.693 -5.85,5.854 -7.539,9.296c-6.235,12.668 -1.061,30.104 12.441,42.852c15.723,14.602 36.396,13.979 41.074,-1.238c2.907,-9.46 -3.684,-29.312 -13.921,-42.137c-9.257,-11.623 -22.816,-15.251 -32.055,-8.773Z" style="fill:#000;fill-rule:nonzero;"/>
    <path d="M130.018,285.751c-20.514,5.922 -36.451,19.885 -35.406,31.366c0.432,5.935 7.203,13.949 13.888,16.613c6.82,2.679 20.057,3.063 27.707,0.769c24.482,-7.121 36.051,-29.787 22.763,-44.416c-3.904,-4.27 -5.211,-4.827 -12.783,-5.673c-5.544,-0.62 -11.074,-0.143 -16.169,1.341Z" style="fill:#000;fill-rule:nonzero;"/>
  </g>
</svg>
